{"glyphs":{"0":{"ha":851,"x_min":0,"x_max":0,"o":"m 426 -3 b 824 486 717 -3 824 249 b 426 978 824 724 717 978 b 28 486 136 978 28 724 b 426 -3 28 247 136 -3 z m 222 486 b 426 807 222 639 265 807 b 629 486 586 807 629 639 b 426 168 629 333 586 168 b 222 486 265 168 222 333 z "},"1":{"ha":350,"x_min":0,"x_max":0,"o":"m 142 0 l 322 0 l 322 972 l 28 972 l 28 797 l 142 797 z "},"2":{"ha":760,"x_min":0,"x_max":0,"o":"m 490 713 b 51 142 490 506 51 314 l 51 0 l 704 0 l 704 181 l 311 181 b 732 710 365 328 732 449 b 383 989 732 871 594 989 b 28 640 189 989 28 888 l 214 640 b 375 821 214 742 279 821 b 490 713 442 821 490 782 z "},"3":{"ha":781,"x_min":0,"x_max":0,"o":"m 533 708 b 390 596 533 643 472 596 l 292 596 l 292 422 l 379 422 b 557 290 494 422 557 374 b 401 150 557 217 508 151 b 235 335 285 149 235 225 l 49 335 b 400 -12 49 118 181 -12 b 753 272 613 -12 753 113 b 446 510 753 417 636 510 b 732 715 636 510 732 592 b 389 978 732 853 611 979 b 28 631 192 978 28 878 l 214 631 b 385 815 214 757 288 815 b 389 815 386 815 388 815 b 533 708 465 814 533 778 z "},"4":{"ha":821,"x_min":0,"x_max":0,"o":"m 518 690 l 518 396 l 250 396 z m 28 224 l 518 224 l 518 0 l 699 0 l 699 224 l 765 224 l 793 396 l 699 396 l 699 974 l 522 974 l 28 396 z "},"5":{"ha":760,"x_min":0,"x_max":0,"o":"m 732 335 b 456 663 732 556 593 663 b 232 529 326 663 258 568 l 244 807 l 685 807 l 685 976 l 69 976 l 36 431 l 181 431 b 343 500 214 468 268 500 b 536 318 460 500 536 422 b 375 150 536 235 488 151 b 372 150 374 150 372 150 b 214 335 278 150 214 208 l 28 335 b 381 -12 28 88 192 -12 b 732 335 594 -12 732 115 z "},"6":{"ha":751,"x_min":0,"x_max":0,"o":"m 224 346 b 378 450 224 390 272 450 b 539 315 489 450 539 385 b 378 163 539 240 481 163 b 224 346 267 163 224 253 z m 28 368 b 367 -14 28 72 174 -14 b 724 314 640 -14 724 160 b 447 624 724 478 628 624 b 224 471 328 624 263 560 l 224 665 b 376 815 224 746 279 813 b 383 815 379 815 381 815 b 531 686 474 815 531 757 l 717 686 b 390 978 717 869 596 978 b 28 619 164 978 28 847 z "},"7":{"ha":692,"x_min":0,"x_max":0,"o":"m 318 0 l 664 835 l 664 975 l 28 975 l 28 803 l 457 803 l 125 0 z "},"8":{"ha":790,"x_min":0,"x_max":0,"o":"m 211 315 b 396 471 211 407 285 471 b 579 315 506 471 579 407 b 396 160 579 224 506 160 b 211 315 285 160 211 224 z m 261 711 b 397 804 261 767 315 804 b 532 711 478 804 532 767 b 397 617 532 656 478 617 b 261 711 315 617 261 656 z m 28 294 b 396 -7 28 115 175 -7 b 763 296 615 -7 763 115 b 546 517 763 408 704 494 b 715 736 675 592 715 656 b 397 979 715 881 588 979 b 78 751 206 979 78 881 b 278 585 78 657 146 604 b 28 294 126 543 28 440 z "},"9":{"ha":751,"x_min":0,"x_max":0,"o":"m 528 618 b 374 514 528 574 479 514 b 213 649 263 514 213 579 b 374 801 213 724 271 801 b 528 618 485 801 528 711 z m 724 596 b 385 978 724 892 578 978 b 28 651 111 978 28 804 b 304 340 28 486 124 340 b 528 493 424 340 489 404 l 528 299 b 375 149 528 218 472 151 b 368 149 372 149 371 149 b 221 278 278 149 221 207 l 35 278 b 361 -14 35 94 156 -14 b 724 344 588 -14 724 117 z "},"\u0000":{"ha":0,"x_min":0,"x_max":0,"o":""},"\r":{"ha":463,"x_min":0,"x_max":0,"o":""}," ":{"ha":361,"x_min":0,"x_max":0,"o":""},"!":{"ha":275,"x_min":0,"x_max":0,"o":"m 65 243 l 214 243 l 247 986 l 28 986 z m 33 0 l 242 0 l 242 192 l 33 192 z "},"\"":{"ha":375,"x_min":0,"x_max":0,"o":"m 60 749 l 149 749 l 181 972 l 28 972 z m 226 749 l 315 749 l 347 972 l 194 972 z "},"#":{"ha":867,"x_min":0,"x_max":0,"o":"m 379 474 l 511 474 l 494 413 l 363 413 z m 250 0 l 326 283 l 458 283 l 382 0 l 547 0 l 624 283 l 792 283 l 792 413 l 660 413 l 676 474 l 839 474 l 839 603 l 711 603 l 789 890 l 624 890 l 546 603 l 414 603 l 492 890 l 325 890 l 247 603 l 74 603 l 74 474 l 213 474 l 196 413 l 28 413 l 28 283 l 161 283 l 85 0 z "},"$":{"ha":860,"x_min":0,"x_max":0,"o":"m 358 -92 l 501 -92 l 501 -8 b 788 279 675 17 788 125 b 257 719 788 617 257 528 b 394 821 257 788 324 821 b 588 640 535 821 588 772 l 774 640 b 501 982 774 850 658 954 l 501 1050 l 358 1050 l 358 986 b 56 689 175 968 56 854 b 586 249 56 339 586 424 b 443 151 586 185 517 151 b 242 335 297 151 242 201 l 56 335 b 358 -10 56 114 186 10 z "},"%":{"ha":1032,"x_min":0,"x_max":0,"o":"m 131 -26 l 293 -26 l 889 994 l 728 994 z m 28 778 b 257 571 28 654 119 571 b 486 778 394 571 486 654 b 257 985 486 901 394 985 b 28 778 119 985 28 901 z m 194 778 b 257 847 194 818 221 847 b 319 778 293 847 319 818 b 257 708 319 738 293 708 b 194 778 221 708 194 738 z m 546 207 b 775 0 546 83 638 0 b 1004 207 913 0 1004 83 b 775 414 1004 331 913 414 b 546 207 638 414 546 331 z m 713 207 b 775 276 713 247 739 276 b 838 207 811 276 838 247 b 775 138 838 167 811 138 b 713 207 739 138 713 167 z "},"&":{"ha":1039,"x_min":0,"x_max":0,"o":"m 550 232 b 413 160 511 182 465 160 b 258 317 333 160 258 214 b 354 465 258 392 299 443 z m 465 625 b 404 747 426 671 404 714 b 503 824 404 797 451 824 b 607 738 561 824 607 790 b 482 606 607 688 564 639 z m 1011 0 l 796 247 b 946 510 857 321 914 411 l 754 510 b 686 372 742 457 715 411 l 518 564 b 792 776 674 581 792 656 b 499 982 792 913 643 982 b 196 742 322 982 196 879 b 297 533 196 663 238 606 l 332 492 l 331 493 b 28 249 138 490 28 386 b 363 -14 28 81 192 -14 b 653 108 469 -14 579 28 l 744 0 z "},"'":{"ha":208,"x_min":0,"x_max":0,"o":"m 60 749 l 149 749 l 181 972 l 28 972 z "},"(":{"ha":397,"x_min":0,"x_max":0,"o":"m 224 500 b 342 1000 224 678 267 890 l 194 1000 b 28 489 100 913 28 700 b 194 -22 28 278 100 65 l 369 -22 b 224 500 278 88 224 300 z "},")":{"ha":397,"x_min":0,"x_max":0,"o":"m 174 500 b 28 -22 174 300 119 88 l 203 -22 b 369 489 297 65 369 278 b 203 1000 369 700 297 913 l 56 1000 b 174 500 131 890 174 678 z "},"*":{"ha":381,"x_min":0,"x_max":0,"o":"m 158 742 l 142 657 l 249 657 l 233 732 l 299 676 l 353 768 l 263 800 l 349 828 l 294 922 l 232 868 l 249 957 l 142 957 l 160 860 l 86 922 l 32 828 l 115 800 l 28 768 l 81 676 z "},"+":{"ha":624,"x_min":0,"x_max":0,"o":"m 233 0 l 390 0 l 390 249 l 596 249 l 596 406 l 390 406 l 390 575 l 233 575 l 233 406 l 28 406 l 28 249 l 233 249 z "},",":{"ha":264,"x_min":0,"x_max":0,"o":"m 236 192 l 28 192 l 28 0 l 121 0 l 121 -12 b 53 -62 121 -43 114 -62 b 31 -58 53 -62 42 -62 l 31 -162 b 83 -165 46 -164 69 -165 b 236 1 197 -165 236 -75 z "},"-":{"ha":540,"x_min":0,"x_max":0,"o":"m 28 283 l 513 283 l 513 432 l 28 432 z "},".":{"ha":236,"x_min":0,"x_max":0,"o":"m 28 0 l 208 0 l 208 178 l 28 178 z "},"/":{"ha":592,"x_min":0,"x_max":0,"o":"m 28 -26 l 190 -26 l 564 1008 l 403 1008 z "},":":{"ha":264,"x_min":0,"x_max":0,"o":"m 28 504 l 236 504 l 236 696 l 28 696 z m 236 192 l 28 192 l 28 0 l 121 0 l 121 -12 b 53 -62 121 -43 114 -62 b 31 -58 53 -62 42 -62 l 31 -162 b 83 -165 46 -164 69 -165 b 236 1 197 -165 236 -75 z "},";":{"ha":264,"x_min":0,"x_max":0,"o":"m 28 504 l 236 504 l 236 696 l 28 696 z m 28 0 l 236 0 l 236 192 l 28 192 z "},"<":{"ha":524,"x_min":0,"x_max":0,"o":"m 274 15 l 496 15 l 250 349 l 496 681 l 274 681 l 28 349 z "},"=":{"ha":628,"x_min":0,"x_max":0,"o":"m 28 415 l 600 415 l 600 561 l 28 561 z m 28 183 l 600 183 l 600 329 l 28 329 z "},">":{"ha":524,"x_min":0,"x_max":0,"o":"m 250 15 l 496 349 l 250 681 l 28 681 l 274 349 l 28 15 z "},"?":{"ha":732,"x_min":0,"x_max":0,"o":"m 518 701 b 276 264 518 560 276 494 l 276 242 l 457 242 l 457 267 b 704 706 457 449 704 479 b 368 990 704 872 569 990 b 28 642 181 990 28 889 l 214 642 b 367 822 214 760 267 822 b 518 701 457 822 518 772 z m 276 0 l 457 0 l 457 178 l 276 178 z "},"@":{"ha":1150,"x_min":0,"x_max":0,"o":"m 654 415 b 572 271 654 325 625 271 b 469 419 514 271 469 335 b 568 567 469 501 511 567 b 654 444 614 567 654 525 z m 844 135 b 1122 485 1029 135 1122 300 b 604 968 1122 772 910 968 b 28 413 269 968 28 735 b 519 -83 28 113 239 -83 l 550 -83 l 550 69 l 521 69 b 188 404 335 69 188 196 b 601 808 188 643 356 808 b 961 451 824 808 961 674 b 876 254 961 347 928 254 b 836 308 851 254 836 278 l 836 696 l 654 696 l 654 589 b 508 707 646 628 622 707 b 279 410 364 707 279 581 b 492 128 279 232 371 128 b 654 249 575 128 626 176 b 844 135 679 181 747 135 z "},"A":{"ha":929,"x_min":0,"x_max":0,"o":"m 465 864 l 601 406 l 328 406 z m 206 0 l 315 364 l 614 364 l 724 0 l 915 0 l 624 972 l 306 972 l 14 0 z "},"B":{"ha":928,"x_min":0,"x_max":0,"o":"m 236 501 l 515 501 b 715 308 649 501 715 406 b 518 172 715 240 649 172 l 236 172 z m 236 800 l 510 800 b 660 669 608 800 660 740 b 515 543 660 594 604 543 l 236 543 z m 519 0 b 900 292 776 0 900 151 b 663 528 900 406 819 514 b 844 744 778 553 844 649 b 538 972 844 858 751 972 l 56 972 l 56 0 z "},"C":{"ha":996,"x_min":0,"x_max":0,"o":"m 531 814 b 782 589 689 814 782 732 l 968 589 b 519 989 968 836 775 989 b 28 489 229 989 28 793 b 510 -14 28 194 215 -14 b 968 400 775 -14 968 154 l 782 400 b 528 176 782 265 689 176 b 218 496 338 176 218 301 b 531 814 218 688 335 814 z "},"D":{"ha":957,"x_min":0,"x_max":0,"o":"m 438 0 b 929 490 733 0 929 193 b 432 972 929 769 757 972 l 56 972 l 56 0 z m 236 800 l 467 800 b 742 489 647 800 742 671 b 467 172 742 289 631 172 l 236 172 z "},"E":{"ha":793,"x_min":0,"x_max":0,"o":"m 56 0 l 738 0 l 738 174 l 236 174 l 236 413 l 683 413 l 683 586 l 236 586 l 236 800 l 738 800 l 738 972 l 56 972 z "},"F":{"ha":793,"x_min":0,"x_max":0,"o":"m 56 0 l 236 0 l 236 413 l 683 413 l 683 586 l 236 586 l 236 800 l 738 800 l 738 972 l 56 972 z "},"G":{"ha":996,"x_min":0,"x_max":0,"o":"m 531 814 b 782 589 689 814 782 732 l 968 589 b 519 989 968 836 775 989 b 28 486 229 989 28 793 b 456 -14 28 196 208 -14 b 782 236 635 -14 739 96 l 782 0 l 968 0 l 968 525 l 578 525 l 578 483 l 782 483 l 782 400 b 528 176 782 265 689 176 b 218 496 338 176 218 301 b 531 814 218 688 335 814 z "},"H":{"ha":953,"x_min":0,"x_max":0,"o":"m 56 0 l 236 0 l 236 408 l 717 408 l 717 0 l 897 0 l 897 972 l 717 972 l 717 589 l 236 589 l 236 972 l 56 972 z "},"I":{"ha":292,"x_min":0,"x_max":0,"o":"m 56 0 l 236 0 l 236 972 l 56 972 z "},"J":{"ha":453,"x_min":0,"x_max":0,"o":"m 210 236 b 106 160 210 189 164 160 b 14 178 79 160 44 165 l 14 4 b 153 -14 64 -10 118 -14 b 397 244 314 -14 397 74 l 397 958 l 210 958 z "},"K":{"ha":917,"x_min":0,"x_max":0,"o":"m 56 0 l 236 0 l 236 492 l 297 492 l 688 0 l 903 0 l 504 508 l 903 972 l 674 972 l 294 533 l 236 533 l 236 975 l 56 975 z "},"L":{"ha":793,"x_min":0,"x_max":0,"o":"m 56 972 l 56 0 l 738 0 l 738 172 l 236 172 l 236 972 z "},"M":{"ha":1225,"x_min":0,"x_max":0,"o":"m 56 0 l 236 0 l 236 801 l 438 0 l 789 0 l 989 843 l 989 0 l 1169 0 l 1169 972 l 825 972 l 613 92 l 388 972 l 56 972 z "},"N":{"ha":947,"x_min":0,"x_max":0,"o":"m 892 0 l 892 972 l 711 972 l 711 107 l 394 972 l 56 972 l 56 0 l 236 0 l 236 851 l 549 0 z "},"O":{"ha":1050,"x_min":0,"x_max":0,"o":"m 28 488 b 525 -15 28 188 242 -15 b 1022 488 808 -15 1022 186 b 525 986 1022 788 808 986 b 28 488 242 986 28 786 z m 215 488 b 526 815 215 682 347 815 b 835 488 703 815 835 683 b 526 156 835 290 703 156 b 215 488 347 156 215 292 z "},"P":{"ha":872,"x_min":0,"x_max":0,"o":"m 236 800 l 510 800 b 660 656 608 800 660 735 b 515 515 660 572 604 515 l 236 515 z m 515 349 b 844 668 717 349 844 463 b 538 972 844 843 751 972 l 56 972 l 56 0 l 236 0 l 236 349 z "},"Q":{"ha":1050,"x_min":0,"x_max":0,"o":"m 215 488 b 526 815 215 682 347 815 b 835 488 703 815 835 683 b 526 156 835 290 703 156 b 215 488 347 156 215 292 z m 28 488 b 431 -7 28 222 196 32 l 431 -200 l 619 -200 l 619 -7 b 1022 488 854 32 1022 221 b 525 986 1022 788 808 986 b 28 488 242 986 28 786 z "},"R":{"ha":900,"x_min":0,"x_max":0,"o":"m 236 800 l 510 800 b 660 656 608 800 660 735 b 515 515 660 572 604 515 l 236 515 z m 236 0 l 236 349 l 436 349 l 639 0 l 844 0 l 638 365 b 844 668 767 404 844 508 b 538 972 844 843 751 972 l 56 972 l 56 0 z "},"S":{"ha":760,"x_min":0,"x_max":0,"o":"m 544 249 b 401 151 544 185 475 151 b 200 335 256 151 200 201 l 14 335 b 382 -14 14 88 178 -14 b 746 279 600 -14 746 103 b 215 719 746 617 215 528 b 353 821 215 788 282 821 b 546 640 493 821 546 772 l 732 640 b 372 989 732 888 571 989 b 14 689 157 989 14 871 b 544 249 14 339 544 424 z "},"T":{"ha":772,"x_min":0,"x_max":0,"o":"m 296 0 l 476 0 l 476 800 l 758 800 l 758 972 l 14 972 l 14 800 l 296 800 z "},"U":{"ha":901,"x_min":0,"x_max":0,"o":"m 56 364 b 435 -15 56 129 200 -15 b 846 365 678 -15 846 139 l 846 972 l 665 972 l 665 369 b 447 158 665 244 575 158 b 236 369 321 158 236 243 l 236 972 l 56 972 z "},"V":{"ha":929,"x_min":0,"x_max":0,"o":"m 306 0 l 624 0 l 915 972 l 724 972 l 465 108 l 206 972 l 14 972 z "},"W":{"ha":1382,"x_min":0,"x_max":0,"o":"m 222 0 l 540 0 l 692 811 l 842 0 l 1160 0 l 1340 972 l 1149 972 l 1001 176 l 853 972 l 529 972 l 382 176 l 233 972 l 42 972 z "},"X":{"ha":815,"x_min":0,"x_max":0,"o":"m 214 972 l 14 972 l 193 486 l 14 0 l 215 0 l 379 458 l 436 458 l 600 0 l 801 0 l 622 486 l 801 972 l 601 972 l 438 517 l 378 517 z "},"Y":{"ha":907,"x_min":0,"x_max":0,"o":"m 364 474 l 364 0 l 544 0 l 544 475 b 628 567 581 486 600 525 l 893 975 l 676 975 l 453 628 l 231 975 l 14 975 l 276 567 b 364 474 304 525 328 485 z "},"Z":{"ha":764,"x_min":0,"x_max":0,"o":"m 14 153 l 14 0 l 750 0 l 750 167 l 250 167 l 747 822 l 747 975 l 22 975 l 22 808 l 511 808 z "},"[":{"ha":331,"x_min":0,"x_max":0,"o":"m 28 -56 l 303 -56 l 303 97 l 222 97 l 222 878 l 303 878 l 303 1031 l 28 1031 z "},"\\":{"ha":564,"x_min":0,"x_max":0,"o":"m 536 -26 l 175 994 l 28 994 l 388 -26 z "},"]":{"ha":331,"x_min":0,"x_max":0,"o":"m 303 -56 l 303 1031 l 28 1031 l 28 878 l 108 878 l 108 97 l 28 97 l 28 -56 z "},"^":{"ha":625,"x_min":0,"x_max":0,"o":"m 28 756 l 200 756 l 314 861 l 425 756 l 597 756 l 379 972 l 247 972 z "},"_":{"ha":669,"x_min":0,"x_max":0,"o":"m 28 0 l 642 0 l 642 153 l 28 153 z "},"`":{"ha":318,"x_min":0,"x_max":0,"o":"m 158 806 l 290 806 l 206 972 l 28 972 z "},"a":{"ha":789,"x_min":0,"x_max":0,"o":"m 553 349 b 365 142 553 226 474 142 b 217 342 272 142 217 203 b 379 554 217 508 297 554 b 553 367 486 554 553 474 z m 733 0 l 733 690 l 553 690 l 553 503 b 311 707 528 606 467 707 b 28 340 128 707 28 568 b 303 -14 28 110 131 -14 b 553 215 468 -14 536 99 l 553 0 z "},"b":{"ha":789,"x_min":0,"x_max":0,"o":"m 236 347 b 424 554 236 469 315 554 b 572 354 517 554 572 493 b 411 142 572 188 492 142 b 236 329 303 142 236 222 z m 56 978 l 56 6 l 236 6 l 236 193 b 478 -11 261 90 322 -11 b 761 356 661 -11 761 128 b 486 710 761 586 658 710 b 236 481 321 710 253 597 l 236 978 z "},"c":{"ha":760,"x_min":0,"x_max":0,"o":"m 407 542 b 558 414 503 542 558 493 l 732 414 b 392 708 732 592 588 708 b 28 342 178 708 28 567 b 392 -14 28 136 168 -14 b 732 294 588 -14 732 117 l 558 294 b 407 153 558 215 503 153 b 214 344 288 153 214 229 b 407 542 214 465 286 542 z "},"d":{"ha":789,"x_min":0,"x_max":0,"o":"m 553 349 b 365 142 553 226 474 142 b 217 342 272 142 217 203 b 379 554 217 508 297 554 b 553 367 486 554 553 474 z m 733 0 l 733 972 l 553 972 l 553 503 b 311 707 528 606 467 707 b 28 340 128 707 28 568 b 303 -14 28 110 131 -14 b 553 215 468 -14 536 99 l 553 0 z "},"e":{"ha":760,"x_min":0,"x_max":0,"o":"m 219 404 b 381 542 235 483 286 542 b 550 404 485 542 550 471 z m 214 347 b 214 363 214 353 214 357 l 729 363 l 729 392 b 390 710 729 575 588 710 b 28 342 182 710 28 561 b 392 -14 28 136 168 -14 b 732 294 588 -14 732 117 l 558 294 b 407 153 558 215 503 153 b 214 347 288 153 214 231 z "},"f":{"ha":550,"x_min":0,"x_max":0,"o":"m 160 654 l 160 3 l 347 3 l 347 654 l 506 654 l 506 696 l 347 696 l 347 725 b 451 801 347 772 393 801 b 543 783 478 801 513 796 l 543 957 b 404 975 493 971 439 975 b 160 717 243 975 160 888 l 160 696 l 72 696 l 72 654 z "},"g":{"ha":789,"x_min":0,"x_max":0,"o":"m 553 349 b 365 142 553 226 474 142 b 217 342 272 142 217 203 b 379 554 217 508 297 554 b 553 367 486 554 553 474 z m 553 44 b 353 -165 553 -121 454 -165 b 149 -92 272 -165 196 -137 l 63 -240 b 336 -332 125 -294 218 -332 b 733 18 575 -332 733 -179 l 733 690 l 553 690 l 553 503 b 311 707 528 606 467 707 b 28 340 128 707 28 568 b 303 -14 28 110 131 -14 b 553 215 468 -14 536 99 z "},"h":{"ha":776,"x_min":0,"x_max":0,"o":"m 499 710 b 236 481 356 710 253 597 l 236 972 l 56 972 l 56 0 l 236 0 l 236 347 b 417 554 236 469 319 554 b 540 388 497 554 540 494 l 540 0 l 721 0 l 721 451 b 499 710 721 610 635 710 z "},"i":{"ha":292,"x_min":0,"x_max":0,"o":"m 56 786 l 236 786 l 236 964 l 56 964 z m 56 0 l 236 0 l 236 696 l 56 696 z "},"j":{"ha":363,"x_min":0,"x_max":0,"o":"m 307 786 l 307 964 l 126 964 l 126 786 z m 307 696 l 126 696 l 126 -31 b 3 -129 126 -103 68 -129 b -69 -119 -24 -129 -49 -125 l -69 -294 b 60 -306 -14 -303 31 -306 b 307 -25 226 -306 307 -214 z "},"k":{"ha":725,"x_min":0,"x_max":0,"o":"m 56 0 l 236 0 l 236 358 l 258 358 l 486 0 l 711 0 l 463 369 l 706 696 l 471 696 l 261 400 l 236 400 l 236 975 l 56 975 z "},"l":{"ha":292,"x_min":0,"x_max":0,"o":"m 56 0 l 236 0 l 236 975 l 56 975 z "},"m":{"ha":1261,"x_min":0,"x_max":0,"o":"m 499 710 b 236 481 356 710 253 597 l 236 696 l 56 696 l 56 0 l 236 0 l 236 347 b 417 554 236 469 319 554 b 540 388 497 554 540 494 l 540 0 l 721 0 l 721 347 b 901 554 721 469 804 554 b 1025 388 982 554 1025 494 l 1025 0 l 1206 0 l 1206 451 b 986 710 1206 610 1119 710 b 719 483 844 710 740 597 b 499 710 708 624 625 710 z "},"n":{"ha":776,"x_min":0,"x_max":0,"o":"m 499 710 b 236 481 356 710 253 597 l 236 696 l 56 696 l 56 0 l 236 0 l 236 347 b 417 554 236 469 319 554 b 540 388 497 554 540 494 l 540 0 l 721 0 l 721 451 b 499 710 721 610 635 710 z "},"o":{"ha":796,"x_min":0,"x_max":0,"o":"m 396 -14 b 768 351 614 -14 768 136 b 396 708 768 567 614 708 b 28 351 179 708 28 567 b 396 -14 28 136 179 -14 z m 400 153 b 215 343 293 153 215 222 b 400 542 215 464 293 542 b 581 350 501 542 581 467 b 400 153 581 233 501 153 z "},"p":{"ha":789,"x_min":0,"x_max":0,"o":"m 236 347 b 424 554 236 469 315 554 b 572 354 517 554 572 493 b 411 142 572 188 492 142 b 236 329 303 142 236 222 z m 56 696 l 56 -332 l 236 -332 l 236 193 b 478 -11 261 90 322 -11 b 761 356 661 -11 761 128 b 486 710 761 586 658 710 b 236 481 321 710 253 597 l 236 696 z "},"q":{"ha":789,"x_min":0,"x_max":0,"o":"m 553 329 b 379 142 553 222 486 142 b 217 354 297 142 217 188 b 365 554 217 493 272 554 b 553 347 474 554 553 469 z m 553 481 b 303 710 536 597 468 710 b 28 356 131 710 28 586 b 311 -11 28 128 128 -11 b 553 193 467 -11 528 90 l 553 -332 l 733 -332 l 733 696 l 553 696 z "},"r":{"ha":518,"x_min":0,"x_max":0,"o":"m 504 700 b 236 499 325 710 256 614 l 236 696 l 56 696 l 56 0 l 236 0 l 236 375 b 422 533 236 478 271 533 b 504 528 456 533 481 531 z "},"s":{"ha":667,"x_min":0,"x_max":0,"o":"m 461 185 b 358 122 461 146 411 122 b 200 240 283 122 200 168 l 28 240 b 336 -14 28 60 164 -14 b 639 207 518 -14 639 69 b 219 515 639 461 219 393 b 319 585 219 554 264 585 b 456 464 390 585 456 536 l 628 464 b 332 718 628 644 496 718 b 42 499 158 718 42 635 b 461 185 42 240 461 297 z "},"t":{"ha":458,"x_min":0,"x_max":0,"o":"m 28 654 l 110 654 l 110 225 b 299 3 110 92 185 3 b 431 21 324 3 375 7 l 431 175 b 376 167 418 171 399 167 b 290 256 319 167 290 196 l 290 654 l 413 654 l 413 696 l 290 696 l 290 869 l 110 869 l 110 696 l 28 696 z "},"u":{"ha":776,"x_min":0,"x_max":0,"o":"m 278 -14 b 540 215 421 -14 524 99 l 540 0 l 721 0 l 721 696 l 540 696 l 540 349 b 360 142 540 226 457 142 b 236 308 279 142 236 201 l 236 696 l 56 696 l 56 244 b 278 -14 56 86 142 -14 z "},"v":{"ha":742,"x_min":0,"x_max":0,"o":"m 207 0 l 549 0 l 728 696 l 536 696 l 376 78 l 206 696 l 14 696 z "},"w":{"ha":1222,"x_min":0,"x_max":0,"o":"m 193 0 l 522 0 l 613 572 l 714 0 l 1043 0 l 1208 696 l 1024 696 l 882 100 l 776 696 l 447 696 l 353 100 l 200 696 l 14 696 z "},"x":{"ha":692,"x_min":0,"x_max":0,"o":"m 207 697 l 14 697 l 154 349 l 14 0 l 208 0 l 338 329 l 354 329 l 483 0 l 678 0 l 538 349 l 678 697 l 485 697 l 356 371 l 336 371 z "},"y":{"ha":715,"x_min":0,"x_max":0,"o":"m 107 -325 b 194 -332 160 -332 194 -332 b 521 -74 356 -332 478 -257 l 701 696 l 496 696 l 361 28 l 219 696 l 14 696 l 154 117 b 353 0 182 1 275 0 l 324 -82 b 193 -158 308 -126 271 -158 b 107 -147 169 -158 142 -156 z "},"z":{"ha":726,"x_min":0,"x_max":0,"o":"m 61 0 l 671 0 l 671 167 l 314 167 l 669 528 l 669 697 l 56 697 l 56 531 l 422 531 l 61 167 z "},"{":{"ha":353,"x_min":0,"x_max":0,"o":"m 192 489 b 279 676 278 521 279 600 l 279 789 b 325 843 279 822 294 843 l 325 996 b 85 803 119 996 85 907 l 85 676 b 28 551 85 618 67 569 l 28 421 b 85 296 67 403 85 354 l 85 169 b 325 -24 85 65 119 -24 l 325 129 b 279 183 294 129 279 150 l 279 296 b 192 489 279 372 278 457 z "},"|":{"ha":199,"x_min":0,"x_max":0,"o":"m 28 -50 l 171 -50 l 171 1021 l 28 1021 z "},"}":{"ha":353,"x_min":0,"x_max":0,"o":"m 161 489 b 74 296 75 457 74 372 l 74 183 b 28 129 74 150 58 129 l 28 -24 b 268 169 233 -24 268 65 l 268 296 b 325 421 268 354 286 403 l 325 551 b 268 676 286 569 268 618 l 268 803 b 28 996 268 907 233 996 l 28 843 b 74 789 58 843 74 822 l 74 676 b 161 489 74 600 75 521 z "},"~":{"ha":481,"x_min":0,"x_max":0,"o":"m 311 949 b 151 981 263 949 207 981 b 28 817 50 981 28 875 l 143 817 b 188 840 143 833 165 840 b 342 811 235 840 294 811 b 453 972 438 811 453 932 l 356 972 b 311 949 356 960 339 949 z "},"¡":{"ha":275,"x_min":0,"x_max":0,"o":"m 47 986 l 47 794 l 228 794 l 228 986 z m 65 743 l 28 0 l 247 0 l 214 743 z "},"¢":{"ha":718,"x_min":0,"x_max":0,"o":"m 304 -125 l 447 -125 l 447 -10 b 732 294 614 13 732 133 l 558 294 b 407 153 558 215 503 153 b 214 344 288 153 214 229 b 407 542 214 465 286 542 b 558 414 503 542 558 493 l 732 414 b 447 706 732 575 614 685 l 447 826 l 304 826 l 304 700 b 28 342 138 667 28 535 b 304 -6 28 164 132 29 z "},"£":{"ha":701,"x_min":0,"x_max":0,"o":"m 28 0 l 674 0 l 674 200 l 279 200 b 336 318 317 213 336 265 l 336 411 l 604 411 l 604 596 l 336 596 l 336 657 b 432 783 336 740 368 783 b 614 725 482 783 571 757 l 614 929 b 408 979 564 957 482 979 b 124 703 254 979 124 881 l 124 596 l 31 596 l 31 411 l 124 411 l 124 311 b 28 200 124 253 103 210 z "},"¤":{"ha":625,"x_min":0,"x_max":0,"o":"m 28 429 b 114 214 28 339 60 264 l 61 111 l 178 111 l 203 161 b 313 143 236 150 272 143 b 424 161 353 143 390 149 l 450 111 l 567 111 l 513 215 b 597 429 567 265 597 340 b 513 642 597 518 565 592 l 567 746 l 450 746 l 424 696 b 313 714 390 708 353 714 b 203 696 272 714 236 707 l 178 746 l 61 746 l 114 643 b 28 429 60 593 28 519 z m 169 429 b 313 586 169 524 226 586 b 456 429 399 586 456 524 b 313 271 456 333 399 271 b 169 429 226 271 169 333 z "},"¥":{"ha":907,"x_min":0,"x_max":0,"o":"m 168 415 l 364 415 l 364 329 l 168 329 l 168 183 l 364 183 l 364 0 l 544 0 l 544 183 l 740 183 l 740 329 l 544 329 l 544 415 l 740 415 l 740 561 l 624 561 b 628 567 625 563 626 565 l 893 975 l 676 975 l 453 628 l 231 975 l 14 975 l 276 567 b 281 561 278 565 279 563 l 168 561 z "},"¦":{"ha":215,"x_min":0,"x_max":0,"o":"m 28 475 l 188 475 l 188 975 l 28 975 z m 28 -225 l 188 -225 l 188 276 l 28 276 z "},"§":{"ha":667,"x_min":0,"x_max":0,"o":"m 461 185 b 358 122 461 146 411 122 b 200 240 283 122 200 168 l 28 240 b 336 -14 28 60 164 -14 b 639 207 518 -14 639 69 b 600 319 639 254 624 290 b 639 438 625 351 639 392 b 219 747 639 693 219 625 b 319 817 219 786 264 817 b 456 696 390 817 456 768 l 628 696 b 332 950 628 876 496 950 b 42 731 158 950 42 867 b 79 617 42 683 56 646 b 42 499 54 585 42 544 b 461 185 42 240 461 297 z m 461 417 b 458 401 461 411 460 407 b 219 515 344 439 219 449 b 221 529 219 519 219 525 b 461 417 335 489 461 478 z "},"¨":{"ha":497,"x_min":0,"x_max":0,"o":"m 28 874 b 131 775 28 814 78 775 b 233 874 183 775 233 815 b 131 972 233 932 190 972 b 28 874 78 972 28 933 z m 264 874 b 367 775 264 814 314 775 b 469 874 419 775 469 815 b 367 972 469 932 426 972 b 264 874 314 972 264 933 z "},"©":{"ha":632,"x_min":0,"x_max":0,"o":"m 317 421 b 604 697 483 421 604 529 b 317 975 604 864 482 975 b 28 697 149 975 28 865 b 317 421 28 528 149 421 z m 317 488 b 99 697 189 488 99 569 b 317 908 99 825 189 908 b 533 697 442 908 533 824 b 317 488 533 571 443 488 z m 331 529 b 457 569 378 529 426 543 l 422 624 b 333 596 401 606 363 596 b 239 696 276 597 239 638 b 346 799 239 757 285 799 b 414 772 374 799 396 789 l 449 831 b 338 865 419 853 382 865 b 160 696 236 865 160 799 b 331 529 160 596 226 529 z "},"ª":{"ha":451,"x_min":0,"x_max":0,"o":"m 322 429 l 424 429 l 424 817 l 322 817 l 322 711 b 186 825 308 768 274 825 b 28 619 85 825 28 747 b 182 421 28 490 86 421 b 322 550 275 421 313 485 z m 322 625 b 217 508 322 556 278 508 b 133 621 165 508 133 543 b 225 740 133 714 179 740 b 322 635 285 740 322 694 z "},"«":{"ha":801,"x_min":0,"x_max":0,"o":"m 288 15 l 510 15 l 264 349 l 510 681 l 288 681 l 28 349 z m 551 15 l 774 15 l 528 349 l 774 681 l 551 681 l 292 349 z "},"¬":{"ha":671,"x_min":0,"x_max":0,"o":"m 28 307 l 504 307 l 504 168 l 643 168 l 643 446 l 28 446 z "},"®":{"ha":632,"x_min":0,"x_max":0,"o":"m 317 421 b 604 697 483 421 604 529 b 317 975 604 864 482 975 b 28 697 149 975 28 865 b 317 421 28 528 149 421 z m 317 488 b 99 697 189 488 99 569 b 317 908 99 825 189 908 b 533 697 442 908 533 824 b 317 488 533 571 443 488 z m 207 550 l 279 550 l 279 672 l 288 672 l 375 550 l 453 550 l 367 674 b 446 761 414 682 446 715 b 351 844 446 811 407 844 l 207 844 z m 279 732 l 279 785 l 342 785 b 374 758 360 785 374 774 b 342 732 374 743 360 732 z "},"¯":{"ha":571,"x_min":0,"x_max":0,"o":"m 28 307 l 543 307 l 543 446 l 28 446 z "},"°":{"ha":404,"x_min":0,"x_max":0,"o":"m 28 804 b 203 640 28 703 104 640 b 376 804 303 640 376 703 b 203 968 376 906 301 968 b 28 804 108 968 28 906 z m 132 804 b 204 874 132 849 163 874 b 272 804 246 874 272 847 b 204 736 272 760 246 736 b 132 804 161 736 132 760 z "},"±":{"ha":624,"x_min":0,"x_max":0,"o":"m 233 175 l 390 175 l 390 361 l 596 361 l 596 518 l 390 518 l 390 694 l 233 694 l 233 518 l 28 518 l 28 361 l 233 361 z m 28 157 l 28 0 l 596 0 l 596 157 z "},"²":{"ha":443,"x_min":0,"x_max":0,"o":"m 54 429 l 411 429 l 411 536 l 232 536 l 339 646 b 415 813 388 696 415 754 b 225 978 415 899 353 978 b 28 900 146 978 71 947 l 79 824 b 196 869 107 850 151 869 b 288 789 257 869 288 833 b 236 683 288 753 268 715 l 54 508 z "},"³":{"ha":463,"x_min":0,"x_max":0,"o":"m 311 826 b 232 763 311 790 278 763 l 176 763 l 176 665 l 225 665 b 325 592 290 665 325 639 b 238 514 325 550 297 514 b 144 617 178 513 144 549 l 40 617 b 236 422 40 496 114 422 b 435 582 356 422 435 492 b 263 715 435 663 369 715 b 422 829 369 715 422 761 b 231 978 422 907 356 978 b 28 783 119 978 28 921 l 132 783 b 231 886 132 854 175 888 b 311 826 274 886 311 865 z "},"´":{"ha":318,"x_min":0,"x_max":0,"o":"m 160 806 l 290 972 l 113 972 l 28 806 z "},"¶":{"ha":738,"x_min":0,"x_max":0,"o":"m 511 0 l 511 863 l 551 863 l 551 0 l 710 0 l 710 975 l 303 975 b 28 717 144 975 28 869 b 269 458 28 564 131 458 l 353 458 l 353 0 z "},"·":{"ha":281,"x_min":0,"x_max":0,"o":"m 28 529 b 140 426 28 460 83 426 b 253 529 196 426 253 464 b 140 632 253 596 196 632 b 28 529 83 632 28 599 z "},"¸":{"ha":363,"x_min":0,"x_max":0,"o":"m 39 -329 l 65 -329 b 335 -176 151 -329 335 -317 b 179 -60 335 -82 251 -43 l 281 47 l 175 60 l 28 -83 l 46 -121 b 164 -157 101 -107 164 -124 b 56 -208 164 -193 93 -208 l 39 -208 z "},"¹":{"ha":251,"x_min":0,"x_max":0,"o":"m 92 429 l 224 429 l 224 974 l 28 974 l 28 861 l 92 861 z "},"º":{"ha":503,"x_min":0,"x_max":0,"o":"m 251 428 b 474 701 414 428 474 568 b 251 978 474 835 414 978 b 28 701 89 978 28 835 b 251 428 28 568 89 428 z m 138 701 b 251 882 138 788 161 882 b 365 701 342 882 365 788 b 251 524 365 617 342 524 b 138 701 161 524 138 617 z "},"»":{"ha":801,"x_min":0,"x_max":0,"o":"m 514 15 l 774 349 l 514 681 l 292 681 l 538 349 l 292 15 z m 250 15 l 510 349 l 250 681 l 28 681 l 274 349 l 28 15 z "},"¼":{"ha":867,"x_min":0,"x_max":0,"o":"m 118 -26 l 253 -26 l 613 994 l 479 994 z m 92 429 l 224 429 l 224 974 l 28 974 l 28 861 l 92 861 z m 406 238 l 406 125 l 650 125 l 650 0 l 782 0 l 782 125 l 804 125 l 819 238 l 782 238 l 782 546 l 668 546 z m 546 238 l 650 356 l 650 238 z "},"½":{"ha":876,"x_min":0,"x_max":0,"o":"m 118 -26 l 253 -26 l 613 994 l 479 994 z m 92 429 l 224 429 l 224 974 l 28 974 l 28 861 l 92 861 z m 488 0 l 844 0 l 844 86 l 644 86 l 772 217 b 849 383 821 267 849 325 b 663 549 849 469 786 549 b 475 471 585 549 515 518 l 526 394 b 632 440 551 421 590 440 b 721 360 690 440 721 404 b 669 254 721 324 701 286 l 488 79 z "},"¾":{"ha":986,"x_min":0,"x_max":0,"o":"m 271 -26 l 406 -26 l 765 994 l 632 994 z m 286 599 b 199 536 286 565 254 536 b 79 586 149 536 108 560 l 21 485 b 214 421 65 444 139 421 b 415 585 350 421 415 497 b 301 722 415 665 354 711 b 404 836 351 732 404 775 b 211 978 404 906 338 978 b 14 900 129 978 56 947 l 65 824 b 185 869 93 850 135 869 b 275 818 242 869 275 844 b 174 768 275 790 229 768 l 139 768 l 139 663 l 190 663 b 286 599 244 663 286 638 z m 558 238 l 558 125 l 803 125 l 803 0 l 935 0 l 935 125 l 957 125 l 972 238 l 935 238 l 935 546 l 821 546 z m 699 238 l 803 356 l 803 238 z "},"¿":{"ha":732,"x_min":0,"x_max":0,"o":"m 456 990 l 275 990 l 275 813 l 456 813 z m 214 289 b 456 726 214 431 456 496 l 456 749 l 275 749 l 275 724 b 28 285 275 542 28 511 b 364 0 28 118 163 0 b 704 349 551 0 704 101 l 518 349 b 365 168 518 231 465 168 b 214 289 275 168 214 218 z "},"À":{"ha":929,"x_min":0,"x_max":0,"o":"m 418 1014 l 550 1014 l 465 1181 l 288 1181 z m 14 0 l 206 0 l 315 364 l 614 364 l 724 0 l 915 0 l 624 972 l 306 972 z m 328 406 l 465 864 l 601 406 z "},"Á":{"ha":929,"x_min":0,"x_max":0,"o":"m 531 1014 l 661 1181 l 483 1181 l 399 1014 z m 14 0 l 206 0 l 315 364 l 614 364 l 724 0 l 915 0 l 624 972 l 306 972 z m 328 406 l 465 864 l 601 406 z "},"Â":{"ha":929,"x_min":0,"x_max":0,"o":"m 267 1028 l 417 1028 l 474 1149 l 518 1028 l 668 1028 l 574 1171 l 375 1171 z m 14 0 l 206 0 l 315 364 l 614 364 l 724 0 l 915 0 l 624 972 l 306 972 z m 328 406 l 465 864 l 601 406 z "},"Ã":{"ha":929,"x_min":0,"x_max":0,"o":"m 519 1150 b 374 1196 474 1150 433 1196 b 250 1056 301 1196 249 1131 l 364 1032 b 411 1056 364 1044 385 1056 b 540 1026 456 1056 494 1026 b 660 1172 613 1026 660 1099 l 563 1188 b 519 1150 563 1168 547 1150 z m 14 0 l 206 0 l 315 364 l 614 364 l 724 0 l 915 0 l 624 972 l 306 972 z m 328 406 l 465 864 l 601 406 z "},"Ä":{"ha":929,"x_min":0,"x_max":0,"o":"m 240 1115 b 343 1017 240 1056 290 1017 b 446 1115 396 1017 446 1057 b 343 1214 446 1174 403 1214 b 240 1115 290 1214 240 1175 z m 476 1115 b 579 1017 476 1056 526 1017 b 682 1115 632 1017 682 1057 b 579 1214 682 1174 639 1214 b 476 1115 526 1214 476 1175 z m 14 0 l 206 0 l 315 364 l 614 364 l 724 0 l 915 0 l 624 972 l 306 972 z m 328 406 l 465 864 l 601 406 z "},"Å":{"ha":929,"x_min":0,"x_max":0,"o":"m 344 1129 b 465 1014 344 1057 399 1014 b 586 1129 532 1014 586 1058 b 465 1244 586 1199 532 1244 b 344 1129 399 1244 344 1200 z m 411 1129 b 465 1183 411 1163 436 1183 b 519 1129 494 1183 519 1161 b 465 1075 519 1096 494 1075 b 411 1129 436 1075 411 1096 z m 14 0 l 206 0 l 315 364 l 614 364 l 724 0 l 915 0 l 624 972 l 306 972 z m 328 406 l 465 864 l 601 406 z "},"Æ":{"ha":1222,"x_min":0,"x_max":0,"o":"m 485 0 l 1167 0 l 1167 174 l 665 174 l 665 413 l 1113 413 l 1113 586 l 665 586 l 665 800 l 1167 800 l 1167 972 l 306 972 l 14 0 l 206 0 l 315 364 l 485 364 z m 328 406 l 485 931 l 485 406 z "},"Ç":{"ha":996,"x_min":0,"x_max":0,"o":"m 531 814 b 782 589 689 814 782 732 l 968 589 b 519 989 968 836 775 989 b 28 489 229 989 28 793 b 422 -7 28 225 179 31 l 344 -83 l 363 -121 b 481 -157 418 -107 481 -124 b 372 -208 481 -193 410 -208 l 356 -208 l 356 -329 l 382 -329 b 651 -176 468 -329 651 -317 b 496 -60 651 -82 568 -43 l 540 -12 b 968 400 789 -1 968 164 l 782 400 b 528 176 782 265 689 176 b 218 496 338 176 218 301 b 531 814 218 688 335 814 z "},"È":{"ha":793,"x_min":0,"x_max":0,"o":"m 350 1014 l 482 1014 l 397 1181 l 219 1181 z m 56 0 l 738 0 l 738 174 l 236 174 l 236 413 l 683 413 l 683 586 l 236 586 l 236 800 l 738 800 l 738 972 l 56 972 z "},"É":{"ha":793,"x_min":0,"x_max":0,"o":"m 463 1014 l 593 1181 l 415 1181 l 331 1014 z m 56 0 l 738 0 l 738 174 l 236 174 l 236 413 l 683 413 l 683 586 l 236 586 l 236 800 l 738 800 l 738 972 l 56 972 z "},"Ê":{"ha":793,"x_min":0,"x_max":0,"o":"m 199 1028 l 349 1028 l 406 1149 l 450 1028 l 600 1028 l 506 1171 l 307 1171 z m 56 0 l 738 0 l 738 174 l 236 174 l 236 413 l 683 413 l 683 586 l 236 586 l 236 800 l 738 800 l 738 972 l 56 972 z "},"Ë":{"ha":793,"x_min":0,"x_max":0,"o":"m 172 1115 b 275 1017 172 1056 222 1017 b 378 1115 328 1017 378 1057 b 275 1214 378 1174 335 1214 b 172 1115 222 1214 172 1175 z m 408 1115 b 511 1017 408 1056 458 1017 b 614 1115 564 1017 614 1057 b 511 1214 614 1174 571 1214 b 408 1115 458 1214 408 1175 z m 56 0 l 738 0 l 738 174 l 236 174 l 236 413 l 683 413 l 683 586 l 236 586 l 236 800 l 738 800 l 738 972 l 56 972 z "},"Ì":{"ha":292,"x_min":0,"x_max":0,"o":"m 99 1014 l 231 1014 l 146 1181 l -32 1181 z m 56 0 l 236 0 l 236 972 l 56 972 z "},"Í":{"ha":292,"x_min":0,"x_max":0,"o":"m 211 1014 l 342 1181 l 164 1181 l 79 1014 z m 56 0 l 236 0 l 236 972 l 56 972 z "},"Î":{"ha":292,"x_min":0,"x_max":0,"o":"m -53 1028 l 97 1028 l 154 1149 l 199 1028 l 349 1028 l 254 1171 l 56 1171 z m 56 0 l 236 0 l 236 972 l 56 972 z "},"Ï":{"ha":292,"x_min":0,"x_max":0,"o":"m -79 1115 b 24 1017 -79 1056 -29 1017 b 126 1115 76 1017 126 1057 b 24 1214 126 1174 83 1214 b -79 1115 -29 1214 -79 1175 z m 157 1115 b 260 1017 157 1056 207 1017 b 363 1115 313 1017 363 1057 b 260 1214 363 1174 319 1214 b 157 1115 207 1214 157 1175 z m 56 0 l 236 0 l 236 972 l 56 972 z "},"Ð":{"ha":957,"x_min":0,"x_max":0,"o":"m 438 0 b 929 490 733 0 929 193 b 432 972 929 769 757 972 l 56 972 l 56 501 l -14 501 l -14 353 l 56 353 l 56 0 z m 236 353 l 471 353 l 471 501 l 236 501 l 236 800 l 467 800 b 742 489 647 800 742 671 b 467 172 742 289 631 172 l 236 172 z "},"Ñ":{"ha":989,"x_min":0,"x_max":0,"o":"m 565 1150 b 419 1196 519 1150 479 1196 b 296 1056 347 1196 294 1131 l 410 1032 b 457 1056 410 1044 431 1056 b 586 1026 501 1056 540 1026 b 706 1172 658 1026 706 1099 l 608 1188 b 565 1150 608 1168 593 1150 z m 892 0 l 892 972 l 711 972 l 711 107 l 394 972 l 56 972 l 56 0 l 236 0 l 236 851 l 549 0 z "},"Ò":{"ha":1050,"x_min":0,"x_max":0,"o":"m 478 1028 l 610 1028 l 525 1194 l 347 1194 z m 28 488 b 525 -15 28 188 242 -15 b 1022 488 808 -15 1022 186 b 525 986 1022 788 808 986 b 28 488 242 986 28 786 z m 215 488 b 526 815 215 682 347 815 b 835 488 703 815 835 683 b 526 156 835 290 703 156 b 215 488 347 156 215 292 z "},"Ó":{"ha":1050,"x_min":0,"x_max":0,"o":"m 590 1028 l 721 1194 l 543 1194 l 458 1028 z m 28 488 b 525 -15 28 188 242 -15 b 1022 488 808 -15 1022 186 b 525 986 1022 788 808 986 b 28 488 242 986 28 786 z m 215 488 b 526 815 215 682 347 815 b 835 488 703 815 835 683 b 526 156 835 290 703 156 b 215 488 347 156 215 292 z "},"Ô":{"ha":1050,"x_min":0,"x_max":0,"o":"m 326 1042 l 476 1042 l 533 1163 l 578 1042 l 728 1042 l 633 1185 l 435 1185 z m 28 488 b 525 -15 28 188 242 -15 b 1022 488 808 -15 1022 186 b 525 986 1022 788 808 986 b 28 488 242 986 28 786 z m 215 488 b 526 815 215 682 347 815 b 835 488 703 815 835 683 b 526 156 835 290 703 156 b 215 488 347 156 215 292 z "},"Õ":{"ha":1050,"x_min":0,"x_max":0,"o":"m 579 1164 b 433 1210 533 1164 493 1210 b 310 1069 361 1210 308 1144 l 424 1046 b 471 1069 424 1058 444 1069 b 600 1040 515 1069 554 1040 b 719 1186 672 1040 719 1113 l 622 1201 b 579 1164 622 1182 607 1164 z m 28 488 b 525 -15 28 188 242 -15 b 1022 488 808 -15 1022 186 b 525 986 1022 788 808 986 b 28 488 242 986 28 786 z m 215 488 b 526 815 215 682 347 815 b 835 488 703 815 835 683 b 526 156 835 290 703 156 b 215 488 347 156 215 292 z "},"Ö":{"ha":1050,"x_min":0,"x_max":0,"o":"m 300 1129 b 403 1031 300 1069 350 1031 b 506 1129 456 1031 506 1071 b 403 1228 506 1188 463 1228 b 300 1129 350 1228 300 1189 z m 536 1129 b 639 1031 536 1069 586 1031 b 742 1129 692 1031 742 1071 b 639 1228 742 1188 699 1228 b 536 1129 586 1228 536 1189 z m 28 488 b 525 -15 28 188 242 -15 b 1022 488 808 -15 1022 186 b 525 986 1022 788 808 986 b 28 488 242 986 28 786 z m 215 488 b 526 815 215 682 347 815 b 835 488 703 815 835 683 b 526 156 835 290 703 156 b 215 488 347 156 215 292 z "},"×":{"ha":729,"x_min":0,"x_max":0,"o":"m 242 571 l 28 571 l 258 286 l 28 0 l 240 0 l 365 154 l 489 0 l 701 0 l 471 286 l 701 571 l 488 571 l 365 418 z "},"Ø":{"ha":1050,"x_min":0,"x_max":0,"o":"m 28 488 b 282 42 28 282 128 122 l 257 -26 l 419 -26 l 426 -7 b 525 -15 458 -12 492 -15 b 1022 488 808 -15 1022 186 b 765 931 1022 694 921 853 l 793 1008 l 632 1008 l 621 978 b 525 986 590 983 558 986 b 28 488 242 986 28 786 z m 215 488 b 526 815 215 682 347 815 b 561 814 539 815 550 815 l 343 213 b 215 488 264 271 215 368 z m 704 761 b 835 488 785 706 835 608 b 526 156 835 290 703 156 b 486 158 513 156 499 157 z "},"Ù":{"ha":901,"x_min":0,"x_max":0,"o":"m 382 1014 l 514 1014 l 429 1181 l 251 1181 z m 56 364 b 435 -15 56 129 200 -15 b 846 365 678 -15 846 139 l 846 972 l 665 972 l 665 369 b 447 158 665 244 575 158 b 236 369 321 158 236 243 l 236 972 l 56 972 z "},"Ú":{"ha":901,"x_min":0,"x_max":0,"o":"m 494 1014 l 625 1181 l 447 1181 l 363 1014 z m 56 364 b 435 -15 56 129 200 -15 b 846 365 678 -15 846 139 l 846 972 l 665 972 l 665 369 b 447 158 665 244 575 158 b 236 369 321 158 236 243 l 236 972 l 56 972 z "},"Û":{"ha":901,"x_min":0,"x_max":0,"o":"m 231 1028 l 381 1028 l 438 1149 l 482 1028 l 632 1028 l 538 1171 l 339 1171 z m 56 364 b 435 -15 56 129 200 -15 b 846 365 678 -15 846 139 l 846 972 l 665 972 l 665 369 b 447 158 665 244 575 158 b 236 369 321 158 236 243 l 236 972 l 56 972 z "},"Ü":{"ha":901,"x_min":0,"x_max":0,"o":"m 204 1115 b 307 1017 204 1056 254 1017 b 410 1115 360 1017 410 1057 b 307 1214 410 1174 367 1214 b 204 1115 254 1214 204 1175 z m 440 1115 b 543 1017 440 1056 490 1017 b 646 1115 596 1017 646 1057 b 543 1214 646 1174 603 1214 b 440 1115 490 1214 440 1175 z m 56 364 b 435 -15 56 129 200 -15 b 846 365 678 -15 846 139 l 846 972 l 665 972 l 665 369 b 447 158 665 244 575 158 b 236 369 321 158 236 243 l 236 972 l 56 972 z "},"Ý":{"ha":907,"x_min":0,"x_max":0,"o":"m 508 1014 l 639 1181 l 461 1181 l 376 1014 z m 364 474 l 364 0 l 544 0 l 544 475 b 628 567 581 486 600 525 l 893 975 l 676 975 l 453 628 l 231 975 l 14 975 l 276 567 b 364 474 304 525 328 485 z "},"Þ":{"ha":833,"x_min":0,"x_max":0,"o":"m 28 -140 l 215 -140 l 215 169 b 468 42 268 89 357 42 b 806 389 656 42 806 178 b 478 736 806 600 656 736 b 215 617 360 736 263 675 l 215 875 l 28 875 z m 414 200 b 215 389 296 200 215 276 b 404 578 215 499 293 578 b 606 382 510 578 606 506 b 414 200 606 271 528 200 z "},"ß":{"ha":826,"x_min":0,"x_max":0,"o":"m 215 -124 l 215 640 b 378 814 215 746 281 814 b 521 694 461 814 521 765 b 365 554 521 628 468 554 l 350 554 l 350 379 l 369 379 b 596 197 485 379 596 313 b 356 35 596 58 435 35 l 356 -162 b 799 194 603 -178 799 -36 b 557 486 799 358 699 474 b 728 707 654 486 728 589 b 383 979 728 858 607 979 b 28 685 167 979 28 865 l 28 -124 z "},"à":{"ha":789,"x_min":0,"x_max":0,"o":"m 333 749 l 465 749 l 381 915 l 203 915 z m 553 0 l 733 0 l 733 690 l 553 690 l 553 503 b 311 707 528 606 467 707 b 28 340 128 707 28 568 b 303 -14 28 110 131 -14 b 553 215 468 -14 536 99 z m 553 349 b 365 142 553 226 474 142 b 217 342 272 142 217 203 b 379 554 217 508 297 554 b 553 367 486 554 553 474 z "},"á":{"ha":789,"x_min":0,"x_max":0,"o":"m 446 749 l 576 915 l 399 915 l 314 749 z m 553 0 l 733 0 l 733 690 l 553 690 l 553 503 b 311 707 528 606 467 707 b 28 340 128 707 28 568 b 303 -14 28 110 131 -14 b 553 215 468 -14 536 99 z m 553 349 b 365 142 553 226 474 142 b 217 342 272 142 217 203 b 379 554 217 508 297 554 b 553 367 486 554 553 474 z "},"â":{"ha":789,"x_min":0,"x_max":0,"o":"m 182 763 l 332 763 l 389 883 l 433 763 l 583 763 l 489 906 l 290 906 z m 553 0 l 733 0 l 733 690 l 553 690 l 553 503 b 311 707 528 606 467 707 b 28 340 128 707 28 568 b 303 -14 28 110 131 -14 b 553 215 468 -14 536 99 z m 553 349 b 365 142 553 226 474 142 b 217 342 272 142 217 203 b 379 554 217 508 297 554 b 553 367 486 554 553 474 z "},"ã":{"ha":789,"x_min":0,"x_max":0,"o":"m 435 885 b 289 931 389 885 349 931 b 165 790 217 931 164 865 l 279 767 b 326 790 279 779 300 790 b 456 761 371 790 410 761 b 575 907 528 761 575 833 l 478 922 b 435 885 478 903 463 885 z m 553 0 l 733 0 l 733 690 l 553 690 l 553 503 b 311 707 528 606 467 707 b 28 340 128 707 28 568 b 303 -14 28 110 131 -14 b 553 215 468 -14 536 99 z m 553 349 b 365 142 553 226 474 142 b 217 342 272 142 217 203 b 379 554 217 508 297 554 b 553 367 486 554 553 474 z "},"ä":{"ha":789,"x_min":0,"x_max":0,"o":"m 156 850 b 258 751 156 790 206 751 b 361 850 311 751 361 792 b 258 949 361 908 318 949 b 156 850 206 949 156 910 z m 392 850 b 494 751 392 790 442 751 b 597 850 547 751 597 792 b 494 949 597 908 554 949 b 392 850 442 949 392 910 z m 553 0 l 733 0 l 733 690 l 553 690 l 553 503 b 311 707 528 606 467 707 b 28 340 128 707 28 568 b 303 -14 28 110 131 -14 b 553 215 468 -14 536 99 z m 553 349 b 365 142 553 226 474 142 b 217 342 272 142 217 203 b 379 554 217 508 297 554 b 553 367 486 554 553 474 z "},"å":{"ha":789,"x_min":0,"x_max":0,"o":"m 260 864 b 381 749 260 792 314 749 b 501 864 447 749 501 793 b 381 979 501 933 447 979 b 260 864 314 979 260 935 z m 326 864 b 381 918 326 897 351 918 b 435 864 410 918 435 896 b 381 810 435 831 410 810 b 326 864 351 810 326 831 z m 553 0 l 733 0 l 733 690 l 553 690 l 553 503 b 311 707 528 606 467 707 b 28 340 128 707 28 568 b 303 -14 28 110 131 -14 b 553 215 468 -14 536 99 z m 553 349 b 365 142 553 226 474 142 b 217 342 272 142 217 203 b 379 554 217 508 297 554 b 553 367 486 554 553 474 z "},"æ":{"ha":1299,"x_min":0,"x_max":0,"o":"m 553 0 l 733 0 l 733 35 b 931 -14 788 4 854 -14 b 1271 294 1126 -14 1271 117 l 1097 294 b 946 153 1097 215 1042 153 b 753 347 826 153 753 231 b 753 363 753 353 753 357 l 1268 363 l 1268 392 b 929 710 1268 575 1126 710 b 733 658 856 710 789 692 l 733 690 l 553 690 l 553 503 b 311 707 528 606 467 707 b 28 340 128 707 28 568 b 303 -14 28 110 131 -14 b 553 215 468 -14 536 99 z m 553 349 b 365 142 553 226 474 142 b 217 342 272 142 217 203 b 379 554 217 508 297 554 b 553 367 486 554 553 474 z m 758 404 b 919 542 774 483 825 542 b 1089 404 1024 542 1089 471 z "},"ç":{"ha":760,"x_min":0,"x_max":0,"o":"m 407 542 b 558 414 503 542 558 493 l 732 414 b 392 708 732 592 588 708 b 28 342 178 708 28 567 b 306 -6 28 164 133 28 l 226 -83 l 244 -121 b 363 -157 300 -107 363 -124 b 254 -208 363 -193 292 -208 l 238 -208 l 238 -329 l 264 -329 b 533 -176 350 -329 533 -317 b 378 -60 533 -82 450 -43 l 422 -12 b 732 294 603 0 732 126 l 558 294 b 407 153 558 215 503 153 b 214 344 288 153 214 229 b 407 542 214 465 286 542 z "},"è":{"ha":760,"x_min":0,"x_max":0,"o":"m 343 751 l 475 751 l 390 918 l 213 918 z m 214 347 b 214 363 214 353 214 357 l 729 363 l 729 392 b 390 710 729 575 588 710 b 28 342 182 710 28 561 b 392 -14 28 136 168 -14 b 732 294 588 -14 732 117 l 558 294 b 407 153 558 215 503 153 b 214 347 288 153 214 231 z m 219 404 b 381 542 235 483 286 542 b 550 404 485 542 550 471 z "},"é":{"ha":760,"x_min":0,"x_max":0,"o":"m 456 751 l 586 918 l 408 918 l 324 751 z m 214 347 b 214 363 214 353 214 357 l 729 363 l 729 392 b 390 710 729 575 588 710 b 28 342 182 710 28 561 b 392 -14 28 136 168 -14 b 732 294 588 -14 732 117 l 558 294 b 407 153 558 215 503 153 b 214 347 288 153 214 231 z m 219 404 b 381 542 235 483 286 542 b 550 404 485 542 550 471 z "},"ê":{"ha":760,"x_min":0,"x_max":0,"o":"m 192 765 l 342 765 l 399 886 l 443 765 l 593 765 l 499 908 l 300 908 z m 214 347 b 214 363 214 353 214 357 l 729 363 l 729 392 b 390 710 729 575 588 710 b 28 342 182 710 28 561 b 392 -14 28 136 168 -14 b 732 294 588 -14 732 117 l 558 294 b 407 153 558 215 503 153 b 214 347 288 153 214 231 z m 219 404 b 381 542 235 483 286 542 b 550 404 485 542 550 471 z "},"ë":{"ha":760,"x_min":0,"x_max":0,"o":"m 165 853 b 268 754 165 793 215 754 b 371 853 321 754 371 794 b 268 951 371 911 328 951 b 165 853 215 951 165 913 z m 401 853 b 504 754 401 793 451 754 b 607 853 557 754 607 794 b 504 951 607 911 564 951 b 401 853 451 951 401 913 z m 214 347 b 214 363 214 353 214 357 l 729 363 l 729 392 b 390 710 729 575 588 710 b 28 342 182 710 28 561 b 392 -14 28 136 168 -14 b 732 294 588 -14 732 117 l 558 294 b 407 153 558 215 503 153 b 214 347 288 153 214 231 z m 219 404 b 381 542 235 483 286 542 b 550 404 485 542 550 471 z "},"ì":{"ha":236,"x_min":0,"x_max":0,"o":"m 71 738 l 203 738 l 118 904 l -60 904 z m 28 0 l 208 0 l 208 694 l 28 694 z "},"í":{"ha":236,"x_min":0,"x_max":0,"o":"m 183 738 l 314 904 l 136 904 l 51 738 z m 28 0 l 208 0 l 208 694 l 28 694 z "},"î":{"ha":236,"x_min":0,"x_max":0,"o":"m -81 751 l 69 751 l 126 872 l 171 751 l 321 751 l 226 894 l 28 894 z m 28 0 l 208 0 l 208 694 l 28 694 z "},"ï":{"ha":236,"x_min":0,"x_max":0,"o":"m -107 839 b -4 740 -107 779 -57 740 b 99 839 49 740 99 781 b -4 938 99 897 56 938 b -107 839 -57 938 -107 899 z m 129 839 b 232 740 129 779 179 740 b 335 839 285 740 335 781 b 232 938 335 897 292 938 b 129 839 179 938 129 899 z m 28 0 l 208 0 l 208 694 l 28 694 z "},"ð":{"ha":713,"x_min":0,"x_max":0,"o":"m 724 619 b 724 632 724 624 724 628 l 803 632 l 803 753 l 706 753 b 361 978 661 897 539 978 b 35 686 156 978 35 869 l 221 686 b 375 815 221 758 281 818 b 501 753 433 814 476 789 l 385 753 l 385 632 l 528 632 l 528 471 b 304 624 489 560 424 624 b 28 314 124 624 28 478 b 385 -14 28 160 111 -14 b 724 368 578 -14 724 72 z m 528 346 b 374 163 528 253 485 163 b 213 315 271 163 213 240 b 374 450 213 385 263 450 b 528 346 479 450 528 390 z "},"ñ":{"ha":776,"x_min":0,"x_max":0,"o":"m 458 883 b 313 929 413 883 372 929 b 189 789 240 929 188 864 l 303 765 b 350 789 303 778 324 789 b 479 760 394 789 433 760 b 599 906 551 760 599 832 l 501 921 b 458 883 501 901 486 883 z m 499 710 b 236 481 356 710 253 597 l 236 696 l 56 696 l 56 0 l 236 0 l 236 347 b 417 554 236 469 319 554 b 540 388 497 554 540 494 l 540 0 l 721 0 l 721 451 b 499 710 721 610 635 710 z "},"ò":{"ha":796,"x_min":0,"x_max":0,"o":"m 349 750 l 481 750 l 396 917 l 218 917 z m 396 -14 b 768 351 614 -14 768 136 b 396 708 768 567 614 708 b 28 351 179 708 28 567 b 396 -14 28 136 179 -14 z m 400 153 b 215 343 293 153 215 222 b 400 542 215 464 293 542 b 581 350 501 542 581 467 b 400 153 581 233 501 153 z "},"ó":{"ha":796,"x_min":0,"x_max":0,"o":"m 461 750 l 592 917 l 414 917 l 329 750 z m 396 -14 b 768 351 614 -14 768 136 b 396 708 768 567 614 708 b 28 351 179 708 28 567 b 396 -14 28 136 179 -14 z m 400 153 b 215 343 293 153 215 222 b 400 542 215 464 293 542 b 581 350 501 542 581 467 b 400 153 581 233 501 153 z "},"ô":{"ha":796,"x_min":0,"x_max":0,"o":"m 197 764 l 347 764 l 404 885 l 449 764 l 599 764 l 504 907 l 306 907 z m 396 -14 b 768 351 614 -14 768 136 b 396 708 768 567 614 708 b 28 351 179 708 28 567 b 396 -14 28 136 179 -14 z m 400 153 b 215 343 293 153 215 222 b 400 542 215 464 293 542 b 581 350 501 542 581 467 b 400 153 581 233 501 153 z "},"õ":{"ha":796,"x_min":0,"x_max":0,"o":"m 450 886 b 304 932 404 886 364 932 b 181 792 232 932 179 867 l 294 768 b 342 792 294 781 315 792 b 471 763 386 792 425 763 b 590 908 543 763 590 835 l 493 924 b 450 886 493 904 478 886 z m 396 -14 b 768 351 614 -14 768 136 b 396 708 768 567 614 708 b 28 351 179 708 28 567 b 396 -14 28 136 179 -14 z m 400 153 b 215 343 293 153 215 222 b 400 542 215 464 293 542 b 581 350 501 542 581 467 b 400 153 581 233 501 153 z "},"ö":{"ha":796,"x_min":0,"x_max":0,"o":"m 171 851 b 274 753 171 792 221 753 b 376 851 326 753 376 793 b 274 950 376 910 333 950 b 171 851 221 950 171 911 z m 407 851 b 510 753 407 792 457 753 b 613 851 563 753 613 793 b 510 950 613 910 569 950 b 407 851 457 950 407 911 z m 396 -14 b 768 351 614 -14 768 136 b 396 708 768 567 614 708 b 28 351 179 708 28 567 b 396 -14 28 136 179 -14 z m 400 153 b 215 343 293 153 215 222 b 400 542 215 464 293 542 b 581 350 501 542 581 467 b 400 153 581 233 501 153 z "},"÷":{"ha":679,"x_min":0,"x_max":0,"o":"m 236 504 l 444 504 l 444 696 l 236 696 z m 28 267 l 651 267 l 651 449 l 28 449 z m 444 192 l 236 192 l 236 0 l 329 0 l 329 -12 b 261 -62 329 -43 322 -62 b 239 -58 261 -62 250 -62 l 239 -162 b 292 -165 254 -164 278 -165 b 444 1 406 -165 444 -75 z "},"ø":{"ha":796,"x_min":0,"x_max":0,"o":"m 396 -14 b 768 351 614 -14 768 136 b 592 663 768 494 700 604 l 681 908 l 519 908 l 446 706 b 396 708 429 707 413 708 b 28 351 179 708 28 567 b 203 33 28 208 94 94 l 144 -126 l 307 -126 l 349 -11 b 396 -14 364 -12 379 -14 z m 265 206 b 215 343 233 238 215 285 b 386 542 215 458 286 535 z m 529 489 b 581 350 561 456 581 408 b 408 153 581 236 506 157 z "},"ù":{"ha":776,"x_min":0,"x_max":0,"o":"m 342 736 l 474 736 l 389 903 l 211 903 z m 278 -14 b 540 215 421 -14 524 99 l 540 0 l 721 0 l 721 696 l 540 696 l 540 349 b 360 142 540 226 457 142 b 236 308 279 142 236 201 l 236 696 l 56 696 l 56 244 b 278 -14 56 86 142 -14 z "},"ú":{"ha":776,"x_min":0,"x_max":0,"o":"m 454 736 l 585 903 l 407 903 l 322 736 z m 278 -14 b 540 215 421 -14 524 99 l 540 0 l 721 0 l 721 696 l 540 696 l 540 349 b 360 142 540 226 457 142 b 236 308 279 142 236 201 l 236 696 l 56 696 l 56 244 b 278 -14 56 86 142 -14 z "},"û":{"ha":776,"x_min":0,"x_max":0,"o":"m 190 750 l 340 750 l 397 871 l 442 750 l 592 750 l 497 893 l 299 893 z m 278 -14 b 540 215 421 -14 524 99 l 540 0 l 721 0 l 721 696 l 540 696 l 540 349 b 360 142 540 226 457 142 b 236 308 279 142 236 201 l 236 696 l 56 696 l 56 244 b 278 -14 56 86 142 -14 z "},"ü":{"ha":776,"x_min":0,"x_max":0,"o":"m 164 838 b 267 739 164 778 214 739 b 369 838 319 739 369 779 b 267 936 369 896 326 936 b 164 838 214 936 164 897 z m 400 838 b 503 739 400 778 450 739 b 606 838 556 739 606 779 b 503 936 606 896 563 936 b 400 838 450 936 400 897 z m 278 -14 b 540 215 421 -14 524 99 l 540 0 l 721 0 l 721 696 l 540 696 l 540 349 b 360 142 540 226 457 142 b 236 308 279 142 236 201 l 236 696 l 56 696 l 56 244 b 278 -14 56 86 142 -14 z "},"ý":{"ha":743,"x_min":0,"x_max":0,"o":"m 449 738 l 579 904 l 401 904 l 317 738 z m 107 -325 b 194 -332 160 -332 194 -332 b 521 -74 356 -332 478 -257 l 701 696 l 496 696 l 361 28 l 219 696 l 14 696 l 154 117 b 353 0 182 1 275 0 l 324 -82 b 193 -158 308 -126 271 -158 b 107 -147 169 -158 142 -156 z "},"þ":{"ha":833,"x_min":0,"x_max":0,"o":"m 28 -140 l 215 -140 l 215 169 b 468 42 268 89 357 42 b 806 389 656 42 806 178 b 478 736 806 600 656 736 b 215 617 360 736 263 675 l 215 931 l 28 931 z m 414 200 b 215 389 296 200 215 276 b 404 578 215 499 293 578 b 606 382 510 578 606 506 b 414 200 606 271 528 200 z "},"ÿ":{"ha":743,"x_min":0,"x_max":0,"o":"m 158 839 b 261 740 158 779 208 740 b 364 839 314 740 364 781 b 261 938 364 897 321 938 b 158 839 208 938 158 899 z m 394 839 b 497 740 394 779 444 740 b 600 839 550 740 600 781 b 497 938 600 897 557 938 b 394 839 444 938 394 899 z m 107 -325 b 194 -332 160 -332 194 -332 b 521 -74 356 -332 478 -257 l 701 696 l 496 696 l 361 28 l 219 696 l 14 696 l 154 117 b 353 0 182 1 275 0 l 324 -82 b 193 -158 308 -126 271 -158 b 107 -147 169 -158 142 -156 z "},"Đ":{"ha":957,"x_min":0,"x_max":0,"o":"m 438 0 b 929 490 733 0 929 193 b 432 972 929 769 757 972 l 56 972 l 56 501 l -14 501 l -14 353 l 56 353 l 56 0 z m 236 353 l 471 353 l 471 501 l 236 501 l 236 800 l 467 800 b 742 489 647 800 742 671 b 467 172 742 289 631 172 l 236 172 z "},"đ":{"ha":928,"x_min":0,"x_max":0,"o":"m 553 0 l 733 0 l 733 724 l 872 724 l 872 863 l 733 863 l 733 972 l 553 972 l 553 863 l 385 863 l 385 724 l 553 724 l 553 503 b 311 707 528 606 467 707 b 28 340 128 707 28 568 b 303 -14 28 110 131 -14 b 553 215 468 -14 536 99 z m 553 349 b 365 142 553 226 474 142 b 217 342 272 142 217 203 b 379 554 217 508 297 554 b 553 367 486 554 553 474 z "},"ı":{"ha":236,"x_min":0,"x_max":0,"o":"m 28 0 l 208 0 l 208 694 l 28 694 z "},"Ł":{"ha":831,"x_min":0,"x_max":0,"o":"m 93 972 l 93 413 l 56 396 l 56 231 l 93 249 l 93 0 l 775 0 l 775 172 l 274 172 l 274 332 l 557 464 l 557 628 l 274 497 l 274 972 z "},"ł":{"ha":292,"x_min":0,"x_max":0,"o":"m 56 0 l 236 0 l 236 344 l 396 419 l 396 583 l 236 510 l 236 975 l 56 975 l 56 426 l -106 351 l -106 186 l 56 261 z "},"Œ":{"ha":1621,"x_min":0,"x_max":0,"o":"m 28 488 b 525 -15 28 188 242 -15 b 883 126 668 -15 794 36 l 883 0 l 1565 0 l 1565 174 l 1064 174 l 1064 413 l 1511 413 l 1511 586 l 1064 586 l 1064 800 l 1565 800 l 1565 972 l 883 972 l 883 846 b 525 986 794 935 668 986 b 28 488 242 986 28 786 z m 215 488 b 526 815 215 682 347 815 b 835 488 703 815 835 683 b 526 156 835 290 703 156 b 215 488 347 156 215 292 z "},"œ":{"ha":1333,"x_min":0,"x_max":0,"o":"m 396 -14 b 682 107 515 -14 615 31 b 965 -14 744 32 842 -14 b 1306 294 1161 -14 1306 117 l 1132 294 b 981 153 1132 215 1076 153 b 788 347 861 153 788 231 b 788 363 788 353 788 357 l 1303 363 l 1303 392 b 964 710 1303 575 1161 710 b 686 588 849 710 751 665 b 396 708 619 664 518 708 b 28 351 179 708 28 567 b 396 -14 28 136 179 -14 z m 400 153 b 215 343 293 153 215 222 b 400 542 215 464 293 542 b 581 350 501 542 581 467 b 400 153 581 233 501 153 z m 793 404 b 954 542 808 483 860 542 b 1124 404 1058 542 1124 471 z "},"Š":{"ha":760,"x_min":0,"x_max":0,"o":"m 579 1226 l 429 1226 l 376 1164 l 325 1226 l 175 1226 l 339 1056 l 415 1056 z m 544 249 b 401 151 544 185 475 151 b 200 335 256 151 200 201 l 14 335 b 382 -14 14 88 178 -14 b 746 279 600 -14 746 103 b 215 719 746 617 215 528 b 353 821 215 788 282 821 b 546 640 493 821 546 772 l 732 640 b 372 989 732 888 571 989 b 14 689 157 989 14 871 b 544 249 14 339 544 424 z "},"š":{"ha":667,"x_min":0,"x_max":0,"o":"m 539 956 l 389 956 l 336 893 l 285 956 l 135 956 l 299 785 l 375 785 z m 461 185 b 358 122 461 146 411 122 b 200 240 283 122 200 168 l 28 240 b 336 -14 28 60 164 -14 b 639 207 518 -14 639 69 b 219 515 639 461 219 393 b 319 585 219 554 264 585 b 456 464 390 585 456 536 l 628 464 b 332 718 628 644 496 718 b 42 499 158 718 42 635 b 461 185 42 240 461 297 z "},"Ÿ":{"ha":907,"x_min":0,"x_max":0,"o":"m 218 1115 b 321 1017 218 1056 268 1017 b 424 1115 374 1017 424 1057 b 321 1214 424 1174 381 1214 b 218 1115 268 1214 218 1175 z m 454 1115 b 557 1017 454 1056 504 1017 b 660 1115 610 1017 660 1057 b 557 1214 660 1174 617 1214 b 454 1115 504 1214 454 1175 z m 364 474 l 364 0 l 544 0 l 544 475 b 628 567 581 486 600 525 l 893 975 l 676 975 l 453 628 l 231 975 l 14 975 l 276 567 b 364 474 304 525 328 485 z "},"Ž":{"ha":764,"x_min":0,"x_max":0,"o":"m 574 1210 l 424 1210 l 371 1147 l 319 1210 l 169 1210 l 333 1039 l 410 1039 z m 14 153 l 14 0 l 750 0 l 750 167 l 250 167 l 747 822 l 747 975 l 22 975 l 22 808 l 511 808 z "},"ž":{"ha":726,"x_min":0,"x_max":0,"o":"m 571 933 l 421 933 l 368 871 l 317 933 l 167 933 l 331 763 l 407 763 z m 61 0 l 671 0 l 671 167 l 314 167 l 669 528 l 669 697 l 56 697 l 56 531 l 422 531 l 422 531 l 61 167 z "},"ƒ":{"ha":683,"x_min":0,"x_max":0,"o":"m 460 500 l 618 500 l 618 694 l 460 694 l 460 701 b 656 731 460 771 614 753 l 656 957 b 499 975 600 971 538 975 b 224 717 304 975 224 874 l 224 694 l 108 694 l 108 500 l 224 500 l 224 -56 b 28 -85 224 -125 69 -107 l 28 -311 b 185 -329 83 -325 146 -329 b 460 -71 379 -329 460 -228 z "},"ˆ":{"ha":457,"x_min":0,"x_max":0,"o":"m 28 829 l 178 829 l 235 950 l 279 829 l 429 829 l 335 972 l 136 972 z "},"ˇ":{"ha":460,"x_min":0,"x_max":0,"o":"m 432 972 l 282 972 l 229 910 l 178 972 l 28 972 l 192 801 l 268 801 z "},"˘":{"ha":521,"x_min":0,"x_max":0,"o":"m 28 972 l 28 949 b 261 750 28 822 139 750 b 493 949 382 750 493 824 l 493 972 l 350 972 l 350 967 b 261 869 349 906 324 869 b 171 967 197 869 172 906 l 171 972 z "},"˙":{"ha":324,"x_min":0,"x_max":0,"o":"m 28 843 b 164 713 28 763 86 713 b 296 843 242 713 296 765 b 164 968 296 918 239 968 b 28 843 89 968 28 919 z "},"˚":{"ha":297,"x_min":0,"x_max":0,"o":"m 28 857 b 149 742 28 785 82 742 b 269 857 215 742 269 786 b 149 972 269 926 215 972 b 28 857 82 972 28 928 z m 94 857 b 149 911 94 890 119 911 b 203 857 178 911 203 889 b 149 803 203 824 178 803 b 94 857 119 803 94 824 z "},"˛":{"ha":347,"x_min":0,"x_max":0,"o":"m 319 -342 l 319 -181 b 186 -94 233 -179 186 -147 b 250 21 186 -57 210 -18 l 139 47 b 28 -143 81 19 28 -51 b 319 -342 28 -272 131 -335 z "},"˜":{"ha":467,"x_min":0,"x_max":0,"o":"m 299 935 b 153 981 253 935 213 981 b 29 840 81 981 28 915 l 143 817 b 190 840 143 829 164 840 b 319 811 235 840 274 811 b 439 957 392 811 439 883 l 342 972 b 299 935 342 953 326 935 z "},"˝":{"ha":524,"x_min":0,"x_max":0,"o":"m 160 806 l 290 972 l 113 972 l 28 806 z m 365 806 l 496 972 l 318 972 l 233 806 z "},"μ":{"ha":721,"x_min":0,"x_max":0,"o":"m 250 -14 b 513 215 393 -14 496 99 l 513 -235 l 693 -235 l 693 696 l 513 696 l 513 349 b 332 142 513 226 429 142 b 208 308 251 142 208 201 l 208 696 l 28 696 l 28 -235 l 208 -235 l 208 -11 b 250 -14 221 -12 235 -14 z "},"–":{"ha":557,"x_min":0,"x_max":0,"o":"m 28 186 l 529 419 l 529 583 l 28 351 z "},"—":{"ha":1083,"x_min":0,"x_max":0,"o":"m 28 300 l 1056 300 l 1056 453 l 28 453 z "},"‘":{"ha":204,"x_min":0,"x_max":0,"o":"m 176 972 l 115 972 l 28 763 l 167 763 z "},"’":{"ha":217,"x_min":0,"x_max":0,"o":"m 28 693 l 157 693 l 244 972 l 38 972 z "},"‚":{"ha":246,"x_min":0,"x_max":0,"o":"m 117 -131 l 218 65 l 79 65 l 28 -131 z "},"“":{"ha":347,"x_min":0,"x_max":0,"o":"m 176 972 l 115 972 l 28 763 l 167 763 z m 319 972 l 258 972 l 171 763 l 310 763 z "},"”":{"ha":347,"x_min":0,"x_max":0,"o":"m 171 763 l 232 763 l 319 972 l 181 972 z m 28 763 l 89 763 l 176 972 l 38 972 z "},"„":{"ha":390,"x_min":0,"x_max":0,"o":"m 261 -131 l 363 65 l 224 65 l 172 -131 z m 117 -131 l 218 65 l 79 65 l 28 -131 z "},"†":{"ha":657,"x_min":0,"x_max":0,"o":"m 225 13 l 431 13 l 431 582 l 629 582 l 629 753 l 431 753 l 431 972 l 225 972 l 225 753 l 28 753 l 28 582 l 225 582 z "},"‡":{"ha":657,"x_min":0,"x_max":0,"o":"m 629 300 l 629 471 l 431 471 l 431 582 l 629 582 l 629 753 l 431 753 l 431 972 l 225 972 l 225 753 l 28 753 l 28 582 l 225 582 l 225 471 l 28 471 l 28 300 l 225 300 l 225 13 l 431 13 l 431 300 z "},"•":{"ha":328,"x_min":0,"x_max":0,"o":"m 28 456 b 165 326 28 372 92 326 b 300 456 238 326 300 375 b 165 585 300 538 239 585 b 28 456 93 585 28 538 z "},"…":{"ha":736,"x_min":0,"x_max":0,"o":"m 28 0 l 236 0 l 236 192 l 28 192 z m 264 0 l 472 0 l 472 192 l 264 192 z m 500 0 l 708 0 l 708 192 l 500 192 z "},"‰":{"ha":1504,"x_min":0,"x_max":0,"o":"m 131 -26 l 293 -26 l 889 994 l 728 994 z m 28 778 b 257 571 28 654 119 571 b 486 778 394 571 486 654 b 257 985 486 901 394 985 b 28 778 119 985 28 901 z m 194 778 b 257 847 194 818 221 847 b 319 778 293 847 319 818 b 257 708 319 738 293 708 b 194 778 221 708 194 738 z m 546 207 b 775 0 546 83 638 0 b 1004 207 913 0 1004 83 b 775 414 1004 331 913 414 b 546 207 638 414 546 331 z m 1018 207 b 1247 0 1018 83 1110 0 b 1476 207 1385 0 1476 83 b 1247 414 1476 331 1385 414 b 1018 207 1110 414 1018 331 z m 713 207 b 775 276 713 247 739 276 b 838 207 811 276 838 247 b 775 138 838 167 811 138 b 713 207 739 138 713 167 z m 1185 207 b 1247 276 1185 247 1211 276 b 1310 207 1283 276 1310 247 b 1247 138 1310 167 1283 138 b 1185 207 1211 138 1185 167 z "},"‹":{"ha":538,"x_min":0,"x_max":0,"o":"m 288 15 l 510 15 l 264 349 l 510 681 l 288 681 l 28 349 z "},"›":{"ha":538,"x_min":0,"x_max":0,"o":"m 250 15 l 510 349 l 250 681 l 28 681 l 274 349 l 28 15 z "},"⁄":{"ha":550,"x_min":0,"x_max":0,"o":"m 28 -26 l 135 -26 l 494 994 l 389 994 z "},"€":{"ha":1039,"x_min":0,"x_max":0,"o":"m 14 499 l 140 499 b 140 482 140 493 140 488 b 144 413 140 458 142 435 l 14 413 l 14 267 l 182 267 b 649 -14 256 93 422 -14 b 1025 106 792 -14 933 29 l 922 267 b 657 186 863 215 743 185 b 458 267 575 188 507 217 l 586 267 l 586 413 l 383 413 b 376 485 379 435 376 460 b 376 499 376 489 376 494 l 586 499 l 586 644 l 419 644 b 697 789 474 735 576 789 b 897 711 776 789 846 761 l 1000 886 b 672 988 915 951 801 988 b 164 644 428 988 231 857 l 14 644 z "},"™":{"ha":593,"x_min":0,"x_max":0,"o":"m 110 696 l 161 696 l 161 924 l 240 924 l 240 972 l 29 972 l 29 924 l 110 924 z m 254 696 l 306 696 l 306 924 l 364 696 l 463 696 l 519 936 l 519 696 l 571 696 l 571 972 l 474 972 l 413 722 l 349 972 l 254 972 z "},"−":{"ha":622,"x_min":0,"x_max":0,"o":"m 28 308 l 594 308 l 594 461 l 28 461 z "},"":{"ha":1299,"x_min":0,"x_max":0,"o":"m 160 654 l 160 3 l 347 3 l 347 654 l 578 654 l 578 0 l 758 0 l 758 347 b 939 554 758 469 842 554 b 1063 388 1019 554 1063 494 l 1063 0 l 1243 0 l 1243 451 b 1021 710 1243 610 1157 710 b 758 481 878 710 775 597 l 758 696 l 347 696 l 347 725 b 451 801 347 772 393 801 b 543 783 478 801 513 796 l 543 957 b 404 975 493 971 439 975 b 160 717 243 975 160 888 l 160 696 l 72 696 l 72 654 z "},"":{"ha":1783,"x_min":0,"x_max":0,"o":"m 160 654 l 160 3 l 347 3 l 347 654 l 578 654 l 578 0 l 758 0 l 758 347 b 939 554 758 469 842 554 b 1063 388 1019 554 1063 494 l 1063 0 l 1243 0 l 1243 347 b 1424 554 1243 469 1326 554 b 1547 388 1504 554 1547 494 l 1547 0 l 1728 0 l 1728 451 b 1508 710 1728 610 1642 710 b 1242 483 1367 710 1263 597 b 1021 710 1231 624 1147 710 b 758 481 878 710 775 597 l 758 696 l 347 696 l 347 725 b 451 801 347 772 393 801 b 543 783 478 801 513 796 l 543 957 b 404 975 493 971 439 975 b 160 717 243 975 160 888 l 160 696 l 72 696 l 72 654 z "},"":{"ha":1042,"x_min":0,"x_max":0,"o":"m 160 654 l 160 3 l 347 3 l 347 654 l 579 654 l 579 0 l 760 0 l 760 375 b 946 533 760 478 794 533 b 1028 528 979 533 1004 531 l 1028 700 b 760 499 849 710 779 614 l 760 696 l 347 696 l 347 725 b 451 801 347 772 393 801 b 543 783 478 801 513 796 l 543 957 b 404 975 493 971 439 975 b 160 717 243 975 160 888 l 160 696 l 72 696 l 72 654 z "},"":{"ha":938,"x_min":0,"x_max":0,"o":"m 160 654 l 160 3 l 347 3 l 347 654 l 579 654 l 579 225 b 768 3 579 92 654 3 b 900 21 793 3 844 7 l 900 175 b 846 167 888 171 868 167 b 760 256 789 167 760 196 l 760 654 l 910 654 l 910 696 l 760 696 l 760 869 l 579 869 l 579 696 l 347 696 l 347 725 b 451 801 347 772 393 801 b 543 783 478 801 513 796 l 543 957 b 404 975 493 971 439 975 b 160 717 243 975 160 888 l 160 696 l 72 696 l 72 654 z "},"":{"ha":815,"x_min":0,"x_max":0,"o":"m 160 654 l 160 3 l 347 3 l 347 654 l 579 654 l 579 -31 b 456 -129 579 -103 521 -129 b 383 -119 429 -129 404 -125 l 383 -294 b 513 -306 439 -303 483 -306 b 760 -25 679 -306 760 -214 l 760 696 l 347 696 l 347 725 b 451 801 347 772 393 801 b 543 783 478 801 513 796 l 543 957 b 404 975 493 971 439 975 b 160 717 243 975 160 888 l 160 696 l 72 696 l 72 654 z "},"":{"ha":1226,"x_min":0,"x_max":0,"o":"m 1171 696 l 758 696 l 758 725 b 863 801 758 772 804 801 b 954 783 889 801 924 796 l 954 957 b 815 975 904 971 850 975 b 571 717 654 975 571 888 l 571 696 l 347 696 l 347 725 b 453 801 347 772 393 801 b 543 783 478 801 513 796 l 543 957 b 404 975 493 971 439 975 b 160 717 243 975 160 888 l 160 696 l 72 696 l 72 654 l 160 654 l 160 3 l 347 3 l 347 654 l 571 654 l 571 3 l 758 3 l 758 654 l 990 654 l 990 -31 b 867 -129 990 -103 932 -129 b 794 -119 840 -129 815 -125 l 794 -294 b 924 -306 850 -303 894 -306 b 1171 -25 1090 -306 1171 -214 z "},"":{"ha":1710,"x_min":0,"x_max":0,"o":"m 160 654 l 160 3 l 347 3 l 347 654 l 571 654 l 571 3 l 758 3 l 758 654 l 989 654 l 989 0 l 1169 0 l 1169 347 b 1350 554 1169 469 1253 554 b 1474 388 1431 554 1474 494 l 1474 0 l 1654 0 l 1654 451 b 1432 710 1654 610 1568 710 b 1169 481 1289 710 1186 597 l 1169 696 l 758 696 l 758 725 b 863 801 758 772 804 801 b 954 783 889 801 924 796 l 954 957 b 815 975 904 971 850 975 b 571 717 654 975 571 888 l 571 696 l 347 696 l 347 725 b 451 801 347 772 393 801 b 543 783 478 801 513 796 l 543 957 b 404 975 493 971 439 975 b 160 717 243 975 160 888 l 160 696 l 72 696 l 72 654 z "},"":{"ha":2193,"x_min":0,"x_max":0,"o":"m 160 654 l 160 3 l 347 3 l 347 654 l 571 654 l 571 3 l 758 3 l 758 654 l 988 654 l 988 0 l 1168 0 l 1168 347 b 1349 554 1168 469 1251 554 b 1472 388 1429 554 1472 494 l 1472 0 l 1653 0 l 1653 347 b 1833 554 1653 469 1736 554 b 1957 388 1914 554 1957 494 l 1957 0 l 2138 0 l 2138 451 b 1918 710 2138 610 2051 710 b 1651 483 1776 710 1672 597 b 1431 710 1640 624 1557 710 b 1168 481 1288 710 1185 597 l 1168 696 l 758 696 l 758 725 b 863 801 758 772 804 801 b 954 783 889 801 924 796 l 954 957 b 815 975 904 971 850 975 b 571 717 654 975 571 888 l 571 696 l 347 696 l 347 725 b 451 801 347 772 393 801 b 543 783 478 801 513 796 l 543 957 b 404 975 493 971 439 975 b 160 717 243 975 160 888 l 160 696 l 72 696 l 72 654 z "},"":{"ha":1450,"x_min":0,"x_max":0,"o":"m 160 654 l 160 3 l 347 3 l 347 654 l 571 654 l 571 3 l 758 3 l 758 654 l 988 654 l 988 0 l 1168 0 l 1168 375 b 1354 533 1168 478 1203 533 b 1436 528 1388 533 1413 531 l 1436 700 b 1168 499 1257 710 1188 614 l 1168 696 l 758 696 l 758 725 b 863 801 758 772 804 801 b 954 783 889 801 924 796 l 954 957 b 815 975 904 971 850 975 b 571 717 654 975 571 888 l 571 696 l 347 696 l 347 725 b 451 801 347 772 393 801 b 543 783 478 801 513 796 l 543 957 b 404 975 493 971 439 975 b 160 717 243 975 160 888 l 160 696 l 72 696 l 72 654 z "},"":{"ha":1350,"x_min":0,"x_max":0,"o":"m 160 654 l 160 3 l 347 3 l 347 654 l 572 654 l 572 3 l 760 3 l 760 654 l 992 654 l 992 225 b 1181 3 992 92 1067 3 b 1313 21 1206 3 1257 7 l 1313 175 b 1258 167 1300 171 1281 167 b 1172 256 1201 167 1172 196 l 1172 654 l 1322 654 l 1322 696 l 1172 696 l 1172 869 l 992 869 l 992 696 l 760 696 l 760 725 b 864 801 760 772 806 801 b 956 783 890 801 925 796 l 956 957 b 817 975 906 971 851 975 b 572 717 656 975 572 888 l 572 696 l 347 696 l 347 725 b 451 801 347 772 393 801 b 543 783 478 801 513 796 l 543 957 b 404 975 493 971 439 975 b 160 717 243 975 160 888 l 160 696 l 72 696 l 72 654 z "},"ﬀ":{"ha":961,"x_min":0,"x_max":0,"o":"m 160 654 l 160 3 l 347 3 l 347 654 l 571 654 l 571 3 l 758 3 l 758 654 l 917 654 l 917 696 l 758 696 l 758 725 b 863 801 758 772 804 801 b 954 783 889 801 924 796 l 954 957 b 815 975 904 971 850 975 b 571 717 654 975 571 888 l 571 696 l 347 696 l 347 725 b 451 801 347 772 393 801 b 543 783 478 801 513 796 l 543 957 b 404 975 493 971 439 975 b 160 717 243 975 160 888 l 160 696 l 72 696 l 72 654 z "},"ﬁ":{"ha":744,"x_min":0,"x_max":0,"o":"m 160 654 l 160 3 l 347 3 l 347 654 l 508 654 l 508 0 l 689 0 l 689 696 l 347 696 l 347 719 b 668 775 347 853 592 829 l 668 943 b 482 975 624 961 556 975 b 160 708 279 975 160 869 l 160 696 l 72 696 l 72 654 z "},"ﬂ":{"ha":744,"x_min":0,"x_max":0,"o":"m 160 654 l 160 3 l 347 3 l 347 654 l 471 654 l 471 696 l 347 696 l 347 706 b 522 829 347 801 433 832 l 508 829 l 508 0 l 689 0 l 689 943 b 482 975 644 961 556 975 b 160 708 279 975 160 869 l 160 696 l 72 696 l 72 654 z "},"ﬃ":{"ha":1224,"x_min":0,"x_max":0,"o":"m 160 654 l 160 3 l 347 3 l 347 654 l 571 654 l 571 3 l 758 3 l 758 654 l 988 654 l 988 0 l 1168 0 l 1168 696 l 758 696 l 758 719 b 1079 775 758 853 1003 829 l 1079 943 b 893 975 1035 961 967 975 b 571 708 690 975 571 869 l 571 696 l 347 696 l 347 725 b 451 801 347 772 393 801 b 543 783 478 801 513 796 l 543 957 b 404 975 493 971 439 975 b 160 717 243 975 160 888 l 160 696 l 72 696 l 72 654 z "},"ﬄ":{"ha":1158,"x_min":0,"x_max":0,"o":"m 160 654 l 160 3 l 347 3 l 347 654 l 574 654 l 574 3 l 761 3 l 761 654 l 885 654 l 885 696 l 761 696 l 761 706 b 936 829 761 801 847 832 l 922 829 l 922 0 l 1103 0 l 1103 943 b 896 975 1058 961 969 975 b 574 708 693 975 574 869 l 574 696 l 347 696 l 347 725 b 451 801 347 772 393 801 b 543 783 478 801 513 796 l 543 957 b 404 975 493 971 439 975 b 160 717 243 975 160 888 l 160 696 l 72 696 l 72 654 z "}}}
